# xmcd
# 
# Track frame offsets:
#     150
#     25782
#     46802
#     74445
#     102605
#     124232
#     146205
#     171034
#     190822
#     211847
# 
# Disc length: 3102
# 
# Revision: 4
# Processed by: cddbd v1.5.2PL0 Copyright (c) Steve Scherf et al.
# Submitted via: BonkEnc v1.0
# 
DISCID=920c1c0a
DTITLE=Utada Hikaru - Piano Sings Utada Hikaru Melodies
DYEAR=2001
DGENRE=Rock
TTITLE0=Automatic
TTITLE1=Another Chance
TTITLE2=In My Room
TTITLE3=Movin' On Without You
TTITLE4=Never Let Go
TTITLE5=甘いワナ
TTITLE6=Time Will Tell
TTITLE7=B and C
TTITLE8=Give Me A Reason
TTITLE9=First Love
EXTD=Piano: Takayoshi Hirano YEAR: 2001
EXTT0=
EXTT1=
EXTT2=
EXTT3=
EXTT4=
EXTT5=
EXTT6=
EXTT7=
EXTT8=
EXTT9=
PLAYORDER=
